<svg width="101" height="100" viewBox="0 0 101 100" fill="none" xmlns="http://www.w3.org/2000/svg">
<path d="M68.8105 1.82532C70.6824 -0.0465707 73.5332 -0.530966 75.9189 0.616333L96.5195 10.5226C98.6842 11.5636 100.061 13.7534 100.061 16.1554V83.3292C100.061 85.7312 98.6843 87.921 96.5195 88.962L75.9189 98.8683C73.5333 100.016 70.6824 99.5311 68.8105 97.6593C71.1169 99.9655 75.0602 98.3318 75.0605 95.0704V4.41418C75.0604 1.15256 71.1169 -0.481038 68.8105 1.82532ZM6.87402 24.0831C8.35914 22.7334 10.5954 22.6341 12.1943 23.8468L39.2988 46.2784L42.9424 49.2853L42.9365 49.2892L68.5 70.4454V87.4825C68.5 97.5596 66.9997 96.8456 62.8105 92.6564L1.35938 35.254C-0.454727 33.5999 -0.452372 30.7434 1.36426 29.0919L6.87402 24.0831ZM25.7891 63.4816L12.1943 74.7335C10.5953 75.9465 8.3582 75.8463 6.87305 74.4962L1.36328 69.4874C-0.452987 67.8359 -0.454693 64.9803 1.35938 63.3263L13.4941 51.9894L25.7891 63.4816ZM62.8105 5.92395C66.9997 1.73472 68.5 1.02065 68.5 11.0978V28.1349L46.4531 46.38L32.1426 34.5704L62.8105 5.92395Z" fill="white"/>
</svg>
